<svg width="38" height="38" viewBox="0 0 38 38" fill="none" xmlns="http://www.w3.org/2000/svg">
<rect width="38" height="38" rx="8" fill="#60BF81"/>
<path d="M20.2857 11.2857C20.2857 10.9447 20.1503 10.6177 19.9091 10.3766C19.668 10.1355 19.341 10 19 10C18.659 10 18.332 10.1355 18.0909 10.3766C17.8497 10.6177 17.7143 10.9447 17.7143 11.2857V17.7143H11.2857C10.9447 17.7143 10.6177 17.8497 10.3766 18.0909C10.1355 18.332 10 18.659 10 19C10 19.341 10.1355 19.668 10.3766 19.9091C10.6177 20.1503 10.9447 20.2857 11.2857 20.2857H17.7143V26.7143C17.7143 27.0553 17.8497 27.3823 18.0909 27.6234C18.332 27.8645 18.659 28 19 28C19.341 28 19.668 27.8645 19.9091 27.6234C20.1503 27.3823 20.2857 27.0553 20.2857 26.7143V20.2857H26.7143C27.0553 20.2857 27.3823 20.1503 27.6234 19.9091C27.8645 19.668 28 19.341 28 19C28 18.659 27.8645 18.332 27.6234 18.0909C27.3823 17.8497 27.0553 17.7143 26.7143 17.7143H20.2857V11.2857Z" fill="#347355"/>
</svg>
