<svg width="38" height="38" viewBox="0 0 38 38" fill="none" xmlns="http://www.w3.org/2000/svg">
<rect y="3.05176e-05" width="38.0035" height="38" rx="8" fill="#60BF81"/>
<path d="M15.8 27.199C15.2879 27.7113 14.5934 27.9994 13.869 28H10V24.156C10 23.432 10.288 22.737 10.8 22.225M15.8 27.199L10.8 22.225M15.8 27.199L25.774 17.221M10.8 22.225L20.784 12.23L22.21 10.802C22.4638 10.5478 22.7651 10.3462 23.0968 10.2086C23.4286 10.071 23.7842 10.0001 24.1433 10C24.5024 9.99994 24.8581 10.0706 25.1899 10.2081C25.5217 10.3455 25.8231 10.547 26.077 10.801L27.203 11.928C27.7155 12.4405 28.0035 13.1357 28.0035 13.8605C28.0035 14.5853 27.7155 15.2805 27.203 15.793L25.774 17.221M25.774 17.221L20.783 12.23" stroke="#347355" stroke-width="1.5" stroke-linecap="round" stroke-linejoin="round"/>
</svg>
